<?xml version="1.0" standalone="no"?>
<!DOCTYPE svg PUBLIC "-//W3C//DTD SVG 20010904//EN"
 "http://www.w3.org/TR/2001/REC-SVG-20010904/DTD/svg10.dtd">
<svg version="1.0" xmlns="http://www.w3.org/2000/svg"
 width="976.000000pt" height="976.000000pt" viewBox="0 0 976.000000 976.000000"
 preserveAspectRatio="xMidYMid meet">
<metadata>
Created by potrace 1.14, written by Peter Selinger 2001-2017
</metadata>
<g transform="translate(0.000000,976.000000) scale(0.100000,-0.100000)"
fill="#000000" stroke="none">
<path d="M5163 6560 c-276 -29 -591 -133 -821 -271 -198 -118 -399 -299 -529
-476 -237 -321 -398 -745 -454 -1198 -20 -156 -17 -520 4 -630 54 -275 154
-474 323 -641 223 -221 529 -335 944 -351 426 -16 820 68 1087 232 115 71 251
211 297 306 74 156 88 372 32 495 -15 34 -42 76 -60 93 l-33 32 -74 -74 c-162
-163 -381 -271 -601 -298 -101 -12 -269 0 -373 26 -107 27 -214 87 -281 157
-73 76 -103 127 -141 233 -28 79 -28 82 -28 320 1 262 15 375 76 612 98 383
319 781 536 965 123 104 272 144 366 99 76 -37 125 -133 146 -287 14 -96 14
-352 1 -468 -6 -51 -7 -93 -2 -98 5 -5 65 -14 133 -20 151 -13 238 1 351 57
202 102 349 254 399 414 23 76 27 202 9 272 -64 241 -340 425 -722 484 -122
18 -469 27 -585 15z"/>
</g>
</svg>
